<mxfile host="app.diagrams.net" modified="2020-10-06T08:55:37.657Z" agent="5.0 (Macintosh; Intel Mac OS X 10_15_7) AppleWebKit/605.1.15 (KHTML, like Gecko) Version/14.0 Safari/605.1.15" etag="KAwogwPV63XwBtzorHD0" version="13.7.7" type="github">
  <diagram id="dRYUVDzbDnZrVVKXQe7n" name="第 1 页">
    <mxGraphModel dx="830" dy="565" grid="1" gridSize="10" guides="1" tooltips="1" connect="1" arrows="1" fold="1" page="1" pageScale="1" pageWidth="827" pageHeight="1169" math="0" shadow="0">
      <root>
        <mxCell id="0" />
        <mxCell id="1" parent="0" />
        <mxCell id="ekWBx2XH8jgDKDmoNhYF-6" value="" style="shape=flexArrow;endArrow=classic;html=1;fontFamily=Comic Sans MS;fontSize=20;fillColor=#ffe6cc;strokeColor=#d79b00;" parent="1" edge="1">
          <mxGeometry width="50" height="50" relative="1" as="geometry">
            <mxPoint x="701.5" y="200" as="sourcePoint" />
            <mxPoint x="701.5" y="260" as="targetPoint" />
          </mxGeometry>
        </mxCell>
        <mxCell id="ekWBx2XH8jgDKDmoNhYF-7" value="读写头" style="text;html=1;align=center;verticalAlign=middle;resizable=0;points=[];autosize=1;fontSize=20;fontFamily=Helvetica;sketch=0;" parent="1" vertex="1">
          <mxGeometry x="662" y="160" width="80" height="30" as="geometry" />
        </mxCell>
        <mxCell id="ekWBx2XH8jgDKDmoNhYF-1" value="....." style="rounded=1;whiteSpace=wrap;html=1;strokeWidth=1;fillWeight=4;hachureGap=8;hachureAngle=45;sketch=1;shadow=0;fillColor=#dae8fc;strokeColor=#6c8ebf;fontSize=20;fontFamily=Comic Sans MS;" parent="1" vertex="1">
          <mxGeometry x="270" y="270" width="96" height="60" as="geometry" />
        </mxCell>
        <mxCell id="ekWBx2XH8jgDKDmoNhYF-2" value="1" style="rounded=1;whiteSpace=wrap;html=1;strokeWidth=1;fillWeight=4;hachureGap=8;hachureAngle=45;sketch=1;shadow=0;fillColor=#dae8fc;strokeColor=#6c8ebf;fontSize=20;fontFamily=Comic Sans MS;" parent="1" vertex="1">
          <mxGeometry x="366" y="270" width="96" height="60" as="geometry" />
        </mxCell>
        <mxCell id="ekWBx2XH8jgDKDmoNhYF-3" value="2" style="rounded=1;whiteSpace=wrap;html=1;strokeWidth=1;fillWeight=4;hachureGap=8;hachureAngle=45;sketch=1;shadow=0;fillColor=#dae8fc;strokeColor=#6c8ebf;fontSize=20;fontFamily=Comic Sans MS;" parent="1" vertex="1">
          <mxGeometry x="462" y="270" width="96" height="60" as="geometry" />
        </mxCell>
        <mxCell id="ekWBx2XH8jgDKDmoNhYF-4" value="+" style="rounded=1;whiteSpace=wrap;html=1;strokeWidth=1;fillWeight=4;hachureGap=8;hachureAngle=45;sketch=1;shadow=0;fillColor=#dae8fc;strokeColor=#6c8ebf;fontSize=20;fontFamily=Comic Sans MS;" parent="1" vertex="1">
          <mxGeometry x="558" y="270" width="96" height="60" as="geometry" />
        </mxCell>
        <mxCell id="ekWBx2XH8jgDKDmoNhYF-5" value="3" style="rounded=1;whiteSpace=wrap;html=1;strokeWidth=1;fillWeight=4;hachureGap=8;hachureAngle=45;sketch=1;shadow=0;fillColor=#dae8fc;strokeColor=#6c8ebf;fontSize=20;fontFamily=Comic Sans MS;" parent="1" vertex="1">
          <mxGeometry x="654" y="270" width="96" height="60" as="geometry" />
        </mxCell>
        <mxCell id="5zogjoik2w1U0TEd_C_G-1" value="....." style="rounded=1;whiteSpace=wrap;html=1;strokeWidth=1;fillWeight=4;hachureGap=8;hachureAngle=45;sketch=1;shadow=0;fillColor=#dae8fc;strokeColor=#6c8ebf;fontSize=20;fontFamily=Comic Sans MS;" parent="1" vertex="1">
          <mxGeometry x="750" y="270" width="96" height="60" as="geometry" />
        </mxCell>
      </root>
    </mxGraphModel>
  </diagram>
</mxfile>
